<?xml version="1.0" encoding="UTF-8"?>
<svg width="117px" height="117px" viewBox="0 0 117 117" version="1.1" xmlns="http://www.w3.org/2000/svg" xmlns:xlink="http://www.w3.org/1999/xlink">
    <!-- Generator: Sketch 55.2 (78181) - https://sketchapp.com -->
    <title>5</title>
    <desc>Created with Sketch.</desc>
    <g id="Page-1" stroke="none" stroke-width="1" fill="none" fill-rule="evenodd">
        <g id="Artboard" transform="translate(-1491.000000, -413.000000)">
            <g id="Group-22" transform="translate(106.000000, 413.000000)">
                <g id="5" transform="translate(1385.000000, 0.000000)">
                    <path d="M58.5,0 C90.8086579,0 117,26.1913421 117,58.5 C117,90.8086579 90.8086579,117 58.5,117 C26.1913421,117 0,90.8086579 0,58.5 C0,26.1913421 26.1913421,0 58.5,0 Z" id="Shape" fill="#FF6242"></path>
                    <path d="M58.5,29.25 C74.6543289,29.25 87.75,42.3456711 87.75,58.5 C87.75,74.6543289 74.6543289,87.75 58.5,87.75 C42.3456711,87.75 29.25,74.6543289 29.25,58.5 C29.25,42.3456711 42.3456711,29.25 58.5,29.25 Z" id="Shape" fill="#3C61AF"></path>
                </g>
            </g>
        </g>
    </g>
</svg>