<svg xmlns="http://www.w3.org/2000/svg" version="1.1" xmlns:xlink="http://www.w3.org/1999/xlink" xmlns:svgjs="http://svgjs.com/svgjs" width="1440" height="560" preserveAspectRatio="none" viewBox="0 0 1440 560"><g mask="url(&quot;#SvgjsMask1000&quot;)" fill="none"><rect width="1440" height="560" x="0" y="0" fill="#1e3266"></rect><path d="M1464 560L0 560 L0 369.1Q1.09 298.19, 72 299.28Q124.75 232.03, 192 284.79Q290.59 263.38, 312 361.98Q377.6 307.58, 432 373.17Q444.75 313.92, 504 326.66Q541.29 243.95, 624 281.24Q691.7 228.94, 744 296.65Q835.48 268.13, 864 359.6Q894.19 317.79, 936 347.97Q967.36 259.33, 1056 290.68Q1105.61 268.29, 1128 317.9Q1156.55 274.45, 1200 303Q1262.42 293.42, 1272 355.84Q1317.88 329.72, 1344 375.6Q1379.39 290.99, 1464 326.38z" fill="#182f5d"></path><path d="M1464 560L0 560 L0 364.69Q80.06 324.75, 120 404.81Q141.05 353.86, 192 374.9Q218.36 329.26, 264 355.62Q323.81 343.44, 336 403.25Q366.93 362.18, 408 393.1Q462.26 375.36, 480 429.62Q487.15 364.77, 552 371.93Q580.57 328.5, 624 357.07Q709.3 322.37, 744 407.67Q788.82 332.49, 864 377.3Q929.66 322.96, 984 388.62Q1072.84 357.46, 1104 446.29Q1150.75 373.05, 1224 419.8Q1255.8 331.6, 1344 363.39Q1398.84 298.23, 1464 353.06z" fill="#25467d"></path><path d="M1488 560L0 560 L0 507.27Q41.13 476.4, 72 517.53Q74.21 447.74, 144 449.94Q170.16 404.1, 216 430.26Q269.91 412.17, 288 466.09Q367.65 425.74, 408 505.39Q416.44 441.83, 480 450.27Q522.11 420.38, 552 462.48Q568.23 406.71, 624 422.94Q665.5 392.44, 696 433.95Q774.57 392.52, 816 471.09Q862.68 397.76, 936 444.44Q990.1 378.54, 1056 432.64Q1146.26 402.9, 1176 493.16Q1218.57 415.73, 1296 458.3Q1338.94 429.24, 1368 472.18Q1404.15 388.34, 1488 424.49z" fill="#356cb1"></path><path d="M1560 560L0 560 L0 575.36Q49.65 505.01, 120 554.67Q145.97 508.63, 192 534.6Q215.97 486.57, 264 510.53Q321.57 496.1, 336 553.67Q340.97 486.64, 408 491.61Q489.5 501.11, 480 582.6Q496 478.6, 600 494.6Q641.26 463.87, 672 505.13Q734.83 495.96, 744 558.79Q762.09 504.88, 816 522.97Q862.37 497.34, 888 543.71Q961.97 497.68, 1008 571.66Q1028.04 471.69, 1128 491.73Q1205.03 448.76, 1248 525.8Q1325.58 483.38, 1368 560.96Q1409.8 530.76, 1440 572.56Q1461.27 473.82, 1560 495.09z" fill="white"></path></g><defs><mask id="SvgjsMask1000"><rect width="1440" height="560" fill="#ffffff"></rect></mask></defs></svg>